<?xml version="1.0" standalone="no"?>
<!DOCTYPE svg PUBLIC "-//W3C//DTD SVG 1.1//EN" "http://www.w3.org/Graphics/SVG/1.1/DTD/svg11.dtd" >
<svg xmlns="http://www.w3.org/2000/svg">
<metadata>Generated by IcoMoon</metadata>
<defs>
<font id="icomoon-gl" horiz-adv-x="1024">
<font-face units-per-em="1024" ascent="960" descent="-64" />
<missing-glyph horiz-adv-x="1024" />
<glyph unicode="&#x20;" horiz-adv-x="512" d="" />
<glyph unicode="&#xe900;" glyph-name="col" d="M107.088 523.84h189.594v-189.594h-189.594zM107.088 258.406h189.594v-189.594h-189.594zM107.088 789.273h189.594v-189.594h-189.594zM616.686 606.201h-189.594v176.551h189.594v-176.551zM451.819 629.218h140.152v130.516h-140.152v-130.516zM930.052 606.201h-189.594v176.551h189.594v-176.551zM765.175 629.218h140.152v130.516h-140.152v-130.516zM616.686 340.764h-189.594v176.551h189.594v-176.551zM451.819 363.778h140.152v130.516h-140.152v-130.516zM930.052 340.764h-189.594v176.551h189.594v-176.551zM765.175 363.778h140.152v130.516h-140.152v-130.516zM616.686 75.328h-189.594v176.551h189.594v-176.551zM451.819 98.346h140.152v130.516h-140.152v-130.516zM930.052 75.328h-189.594v176.551h189.594v-176.551zM765.175 98.346h140.152v130.516h-140.152v-130.516z" />
<glyph unicode="&#xe901;" glyph-name="div" d="M946.866 418.138l0.042-0.042-168.056-167.973c-7.574-7.341-17.855-11.908-29.231-11.908-23.204 0-42.003 18.8-42.003 42.002 0 11.377 4.565 21.659 11.908 29.22l-0.041 0.041 138.535 138.535-138.056 138.138c-7.862 7.629-12.784 18.266-12.784 30.094 0 23.202 18.8 42.003 42.004 42.003 11.827 0 22.463-4.922 30.094-12.784l0.054 0.054 165.566-165.579c8.941-7.698 14.739-18.979 14.739-31.707-0.002-11.829-4.925-22.468-12.773-30.095zM438.671 139.962c-5.823-16.19-21.317-27.757-39.514-27.757-23.203 0-42.003 18.8-42.003 42.002 0 5.306 0.998 10.394 2.788 15.069l223.717 587.224c5.825 16.188 21.316 27.756 39.515 27.756 23.203 0 42.002-18.8 42.002-42.003 0-5.319-0.997-10.392-2.802-15.067l-223.704-587.224zM302.845 586.109l-138.098-138.096 138.494-138.576c7.342-7.561 11.909-17.843 11.909-29.22 0-23.202-18.801-42.002-42.003-42.002-11.376 0-21.658 4.567-29.233 11.908l-0.041-0.040-167.971 168.055c-7.849 7.628-12.771 18.266-12.771 30.094 0 12.729 5.784 24.010 14.739 31.707l165.62 165.524c7.629 7.861 18.267 12.784 30.095 12.784 23.203 0 42.003-18.801 42.003-42.003 0-11.827-4.923-22.466-12.785-30.094l0.041-0.041z" />
<glyph unicode="&#xe902;" glyph-name="dynamic-fo" d="M557.936 424.658l325.004 0.026c14.342 0 25.594 12.302 25.594 26.654v76.772c0 0.552-0.126 1.062-0.158 1.614 0.026 0.536 0.158 1.046 0.158 1.598v235.152c0 14.352-11.24 25.608-25.594 25.608h-325.004c-14.342 0-25.608-11.24-25.608-25.608v-316.256c0-0.168 0-0.31 0-0.51 0.158-13.974 11.624-25.214 25.608-25.056zM583.528 741.96h273.814v-210.648c0-0.168 0-0.326 0-0.51 0-0.384 0.115-0.752 0.126-1.13-0.026-0.536-0.158-1.036-0.158-1.572v-51.19h-273.788v265.050zM117.682 632.588h338.666c13.477 0 24.094 10.604 24.094 24.12v118.688c0 13.506-10.62 24.12-24.094 24.12h-338.666c-13.477 0-24.11-10.688-24.11-24.12v-118.714c0-0.168 0-0.326 0-0.468 0.142-13.164 10.93-23.752 24.11-23.626zM141.792 680.844v70.47h290.422v-70.516l-290.422 0.042zM883.873 375.687h-759.864c-13.816 0-24.704-10.856-24.704-24.688v-263.862c0-0.142 0-0.299 0-0.452 0.126-13.532 11.182-24.35 24.704-24.22h759.864c13.845 0 24.673 10.856 24.673 24.673v263.846c0.016 13.845-10.83 24.704-24.673 24.704zM859.072 111.84l-710.356 0.058v214.37h710.356v-214.428zM121.478 422.844h338.666c13.477 0 24.094 10.588 24.094 24.094v118.704c0 13.49-10.62 24.12-24.094 24.12h-338.666c-13.464 0-24.094-10.688-24.094-24.12v-118.714c0-0.158 0-0.31 0-0.468 0.158-13.164 10.93-23.752 24.094-23.613zM145.598 471.090v70.47h290.432v-70.516l-290.432 0.042z" />
<glyph unicode="&#xe903;" glyph-name="dynamic-gr" d="M921.557 819.373h-826.637c-15.994 0-26.66-10.666-26.66-26.66v-702.936c0-15.994 10.666-26.66 26.66-26.66h826.621c15.994 0 26.644 13.346 26.644 26.66v702.936c0.016 15.994-10.653 26.66-26.631 26.66zM894.881 116.466h-773.288v649.587h773.288v-649.587zM572.242 193.782h218.65c15.994 0 26.66 10.666 26.66 26.676v391.969c0 15.994-10.666 26.66-26.66 26.66h-218.65c-16.007 0-26.676-10.666-26.676-26.66v-391.969c-0.016-16.007 10.653-26.676 26.676-26.676zM598.9 585.754h165.314v-338.649h-165.314v338.649zM225.588 455.102h218.666c13.33 0 26.66 10.666 26.66 26.66v130.668c0 15.994-10.666 26.66-26.66 26.66h-218.666c-15.994 0-26.66-10.666-26.66-26.66v-130.668c0-15.994 10.653-26.66 26.66-26.66zM252.248 585.754h165.33v-77.316h-165.33v77.316zM225.588 193.782h218.666c13.33 0 26.66 10.666 26.66 26.676v130.652c0 15.994-10.666 26.66-26.66 26.66h-218.666c-15.994 0-26.66-10.666-26.66-26.66v-130.652c0-16.007 10.653-26.676 26.66-26.676zM252.248 324.45h165.33v-77.348h-165.33v77.348z" />
<glyph unicode="&#xe904;" glyph-name="fluid-view" d="M836.032-20.032h-648.064c-59.614 0.036-107.931 48.353-107.968 107.964v719.94c0 59.52 48.384 107.968 107.968 107.968h647.872c59.584 0 107.968-48.384 107.968-107.968v-719.936c0 0 0 0 0 0 0-59.562-48.23-107.859-107.766-107.968h-0.010zM187.968 844.032c-19.848-0.072-35.923-16.125-36.032-35.958v-719.946c0-19.904 16.256-35.968 36.032-35.968h647.872c0.038 0 0.083 0 0.128 0 19.829 0 35.904 16.075 35.904 35.904 0 0.023 0 0.045 0 0.068v-0.004 719.936c-0.036 19.872-16.155 35.968-36.032 35.968 0 0 0 0 0 0h-647.872zM657.088 411.136h-397.376c-19.882 0-36 16.118-36 36s16.118 36 36 36h397.248c19.882 0 36-16.118 36-36s-16.118-36-36-36v0zM762.688 196.544h-503.104c-19.882 0-36 16.118-36 36s16.118 36 36 36h503.104c19.882 0 36-16.118 36-36s-16.118-36-36-36v0zM223.808 680.512c-0.020-0.554-0.032-1.205-0.032-1.859 0-29.832 24.184-54.016 54.016-54.016s54.016 24.184 54.016 54.016c0 0.654-0.012 1.305-0.035 1.953l0.003-0.094c0 29.832-24.184 54.016-54.016 54.016s-54.016-24.184-54.016-54.016v0zM456.96 680.512c0-29.832 24.184-54.016 54.016-54.016s54.016 24.184 54.016 54.016v0c0 29.832-24.184 54.016-54.016 54.016s-54.016-24.184-54.016-54.016v0zM691.072 680.512c0-29.832 24.184-54.016 54.016-54.016s54.016 24.184 54.016 54.016v0c0 29.832-24.184 54.016-54.016 54.016s-54.016-24.184-54.016-54.016v0z" />
<glyph unicode="&#xe905;" glyph-name="form-col" d="M882.347 799.431h-740.693c-68.172-0.016-123.433-55.276-123.449-123.447v-451.358c0.016-68.172 55.276-123.433 123.447-123.449h740.695c68.172 0.016 123.433 55.276 123.449 123.447v451.358c-0.032 68.166-55.283 123.416-123.446 123.449h-0.003zM944.043 224.626c0-34.133-27.591-61.724-61.724-61.724h-740.665c-34.077 0.016-61.696 27.645-61.696 61.724v0 451.356c0 34.079 27.619 61.708 61.694 61.724h740.695c34.133 0 61.724-27.648 61.724-61.724v-451.356zM270.734 394.297l29.497-3.84c-3.214-20.338-11.463-36.238-24.747-47.758s-29.582-17.237-48.924-17.237c-24.235 0-43.691 7.908-58.425 23.751s-22.073 38.514-22.073 68.096c0 19.115 3.157 35.84 9.5 50.176s15.986 25.088 28.928 32.256 27.022 10.752 42.24 10.752c19.228 0 34.958-4.864 47.161-14.592s20.053-23.524 23.495-41.415l-29.156-4.523c-2.788 11.89-7.708 20.821-14.763 26.823s-15.588 8.988-25.572 8.988c-15.104 0-27.392-5.404-36.836-16.242s-14.165-27.961-14.165-51.428c0-23.78 4.551-41.045 13.653-51.826s20.992-16.156 35.669-16.156c11.776 0 21.618 3.612 29.497 10.837s12.885 18.347 15.019 33.337zM314.709 417.963c0 32.768 9.102 57.060 27.335 72.846 15.218 13.113 33.792 19.655 55.666 19.655 24.32 0 44.231-7.964 59.676-23.922s23.154-37.973 23.154-66.076c0-22.784-3.413-40.704-10.24-53.76s-16.782-23.182-29.838-30.407-27.307-10.837-42.752-10.837c-24.775 0-44.8 7.936-60.075 23.836s-22.926 38.798-22.926 68.665zM345.543 417.963c0-22.67 4.949-39.652 14.82-50.916s22.329-16.924 37.348-16.924c14.876 0 27.278 5.66 37.177 17.010s14.82 28.615 14.82 51.826c0 21.902-4.978 38.485-14.905 49.749s-22.3 16.924-37.092 16.924c-14.99 0-27.449-5.604-37.348-16.839s-14.82-28.16-14.82-50.83zM515.044 329.472v244.338h30.009v-244.338h-30.009zM579.897 402.802v30.18h92.16v-30.18h-92.16zM852.565 513.963l-29.838-2.332c-2.674 11.776-6.457 20.338-11.321 25.657-7.277 7.903-17.673 12.836-29.222 12.836-0.277 0-0.553-0.003-0.828-0.008l0.041 0.001c-9.557 0-17.948-2.674-25.173-7.993-9.444-6.884-16.896-16.953-22.329-30.18s-8.277-32.057-8.505-56.491c7.225 11.008 16.043 19.172 26.51 24.491s21.39 7.993 32.825 7.993c19.996 0 37.035-7.367 51.086-22.073s21.077-33.764 21.077-57.088c0-15.332-3.3-29.582-9.927-42.752s-15.701-23.239-27.25-30.236-24.661-10.496-39.339-10.496c-25.003 0-45.397 9.188-61.156 27.591s-23.666 48.697-23.666 90.908c0 47.218 8.732 81.55 26.169 102.997 15.218 18.66 35.726 27.989 61.497 27.989 19.228 0 34.958-5.376 47.246-16.156s19.655-25.657 22.101-44.658zM730.055 408.633c0-10.325 2.19-20.224 6.571-29.668s10.524-16.64 18.404-21.589 16.156-7.424 24.832-7.424c12.658 0 23.552 5.12 32.654 15.332s13.653 24.121 13.653 41.671c0 16.896-4.494 30.208-13.511 39.908s-20.338 14.592-33.991 14.592c-13.568 0-25.060-4.864-34.503-14.592s-14.108-22.443-14.108-38.229z" />
<glyph unicode="&#xe906;" glyph-name="from" d="M56.32 803.84v-716.8h916.48v716.8h-916.48zM644.096 300.032h-257.536v144.384h258.048v-144.384zM680.96 444.416h255.488v-144.384h-255.488v144.384zM644.096 263.68v-139.776h-257.536v139.776h257.536zM92.672 444.416h257.024v-144.384h-257.024v144.384zM386.56 481.28v161.792h258.048v-162.304h-258.048zM349.696 643.072v-162.304h-257.024v162.304h257.024zM92.672 263.68h257.024v-139.776h-257.024v139.776zM680.96 123.904v139.776h255.488v-139.776h-255.488zM936.448 481.28h-255.488v161.792h255.488v-161.792z" />
<glyph unicode="&#xe907;" glyph-name="grid" d="M803.5 421.5c14.669 0 26.5 11.831 26.5 26.5s-11.831 26.5-26.5 26.5h-106v106h106c14.669 0 26.5 11.831 26.5 26.5s-11.831 26.5-26.5 26.5h-106v106c0 14.669-11.831 26.5-26.5 26.5s-26.5-11.831-26.5-26.5v-106h-106v106c0 14.669-11.831 26.5-26.5 26.5s-26.5-11.831-26.5-26.5v-106h-106v106c0 14.669-11.831 26.5-26.5 26.5s-26.5-11.831-26.5-26.5v-106h-106c-14.669 0-26.5-11.831-26.5-26.5s11.831-26.5 26.5-26.5h106v-106h-106c-14.669 0-26.5-11.831-26.5-26.5s11.831-26.5 26.5-26.5h106v-106h-106c-14.669 0-26.5-11.831-26.5-26.5s11.831-26.5 26.5-26.5h106v-106c0-14.669 11.831-26.5 26.5-26.5s26.5 11.831 26.5 26.5v106h106v-106c0-14.669 11.831-26.5 26.5-26.5s26.5 11.831 26.5 26.5v106h106v-106c0-14.669 11.831-26.5 26.5-26.5s26.5 11.831 26.5 26.5v106h106c14.669 0 26.5 11.831 26.5 26.5s-11.831 26.5-26.5 26.5h-106v106h106zM485.5 315.5h-106v106h106v-106zM485.5 474.5h-106v106h106v-106zM644.5 315.5h-106v106h106v-106zM644.5 474.5h-106v106h106v-106zM883 872h-742c-29.244 0-53-23.662-53-53v-742c0-29.338 23.756-53 53-53h742c29.244 0 53 23.662 53 53v742c0 29.338-23.756 53-53 53zM883 77h-742v742h742v-742z" />
<glyph unicode="&#xe908;" glyph-name="group" d="M867.837 24h-247.939c-37.604 0.046-68.078 30.517-68.124 68.119v247.984c0.046 37.618 30.542 68.099 68.161 68.124h247.981c37.588-0.070 68.035-30.532 68.081-68.119v-247.984c-0.046-37.618-30.542-68.099-68.161-68.124h-0.002zM619.858 340.103v-247.979h247.939v247.979zM404.103 24h-247.939c-37.637 0.024-68.139 30.527-68.163 68.161v247.941c0.046 37.604 30.517 68.078 68.119 68.124h247.984c37.637-0.024 68.139-30.527 68.163-68.161v-247.981c-0.070-37.603-30.554-68.060-68.161-68.081h-0.002zM156.163 340.103v-247.979h247.939v247.979zM867.837 487.734h-247.939c-37.604 0.046-68.078 30.517-68.124 68.119v247.984c0.024 37.622 30.503 68.118 68.119 68.163h247.984c37.618-0.046 68.099-30.542 68.124-68.161v-247.941c-0.024-37.637-30.527-68.139-68.161-68.163h-0.002zM619.897 803.837v-247.939h247.939v247.939zM404.103 487.734h-247.939c-37.637 0.024-68.139 30.527-68.163 68.161v247.941c0.024 37.637 30.527 68.139 68.161 68.163h247.942c37.637-0.024 68.139-30.527 68.163-68.161v-247.941c-0.024-37.637-30.527-68.139-68.161-68.163h-0.002zM156.163 803.837v-247.939h247.939v247.939z" />
<glyph unicode="&#xe909;" glyph-name="list-view" d="M393.6 625.6h473.6c35.52 0 59.2 23.68 59.2 59.2s-23.68 59.2-59.2 59.2h-473.6c-35.52 0-59.2-23.68-59.2-59.2s23.68-59.2 59.2-59.2zM867.2 507.2h-473.6c-35.52 0-59.2-23.68-59.2-59.2s23.68-59.2 59.2-59.2h473.6c35.52 0 59.2 23.68 59.2 59.2s-23.68 59.2-59.2 59.2zM867.2 270.4h-473.6c-35.52 0-59.2-23.68-59.2-59.2s23.68-59.2 59.2-59.2h473.6c35.52 0 59.2 23.68 59.2 59.2s-23.68 59.2-59.2 59.2zM156.8 744c-35.52 0-59.2-23.68-59.2-59.2s23.68-59.2 59.2-59.2 59.2 23.68 59.2 59.2-23.68 59.2-59.2 59.2zM156.8 507.2c-35.52 0-59.2-23.68-59.2-59.2s23.68-59.2 59.2-59.2 59.2 23.68 59.2 59.2-23.68 59.2-59.2 59.2zM156.8 270.4c-35.52 0-59.2-23.68-59.2-59.2s23.68-59.2 59.2-59.2 59.2 23.68 59.2 59.2-23.68 59.2-59.2 59.2z" />
<glyph unicode="&#xe90a;" glyph-name="panel" d="M880.417 100.416h-796.964v695.168h853.428v-695.152h-56.464zM880.417 734.752h-737.378v-122.893h737.378v122.893zM880.417 553.516h-737.378v-392.284h737.378v392.284zM245.204 640.412h-61.197v61.197h61.197v-61.197zM367.6 640.412h-61.212v61.197h61.212v-61.197zM489.994 640.412h-61.197v61.197h61.197v-61.197z" />
<glyph unicode="&#xe90b;" glyph-name="panel-group" d="M849.481 871.472h-674.916c-32.894-0.026-59.55-26.688-59.566-59.577v-727.844c0.038-32.862 26.688-59.496 59.566-59.524h674.916c32.84 0.038 59.48 26.672 59.524 59.524v727.844c-0.026 32.878-26.65 59.534-59.524 59.577zM174.566 812.107h674.862v-201.152c0 0.448-0.362 0.82-0.81 0.82h-673.243c-0.448 0-0.81-0.362-0.81-0.82v201.152zM174.566 553.048c0-0.448 0.362-0.81 0.81-0.81h673.243c0.432 0 0.81 0.362 0.81 0.81v-201.784c0 0.448-0.362 0.82-0.81 0.82l-673.243-0.026c-0.448-0.026-0.794-0.394-0.81-0.832v201.822zM849.481 91.586h-674.916v201.653c0.038-0.432 0.394-0.74 0.81-0.724h673.274c0.454 0 0.832 0.362 0.832 0.82v-201.746zM290.928 492.502c0-16.445-13.333-29.778-29.778-29.778s-29.778 13.333-29.778 29.778c0 16.445 13.333 29.778 29.778 29.778s29.778-13.333 29.778-29.778zM290.928 232.81c0-16.445-13.333-29.778-29.778-29.778s-29.778 13.333-29.778 29.778c0 16.445 13.333 29.778 29.778 29.778s29.778-13.333 29.778-29.778zM290.928 752.194c0-16.445-13.333-29.778-29.778-29.778s-29.778 13.333-29.778 29.778c0 16.445 13.333 29.778 29.778 29.778s29.778-13.333 29.778-29.778z" />
<glyph unicode="&#xe90c;" glyph-name="reference" d="M745.843 223.235h-449.135c-15.462 0-27.992-12.527-27.992-27.992 0-15.449 12.527-27.976 27.992-27.976h449.135c15.462 0 27.992 12.527 27.992 27.976 0 15.462-12.543 27.992-27.992 27.992zM745.856 560.132c-0.016 0-0.016 0 0 0h-140.381c-15.494 0-28.066-12.559-28.066-28.053 0-15.507 12.543-28.082 28.066-28.082h140.365c15.507 0 28.082 12.559 28.082 28.066 0 15.494-12.575 28.066-28.066 28.066zM745.843 391.73h-308.783c-15.507 0-28.082-12.588-28.082-28.082 0-15.507 12.575-28.082 28.082-28.082h308.783c15.507 0 28.082 12.575 28.082 28.082 0 15.494-12.588 28.082-28.082 28.082zM809.123 772.611h-44.594c-15.507 0-28.082-12.559-28.082-28.066-0.016-15.507 12.559-28.082 28.053-28.082 0.016 0 0.029 0 0.029 0h44.594c6.355 0 11.554-6.233 11.554-13.898v-633.792c0-7.649-5.199-13.882-11.554-13.882h-594.442c-6.371-0.029-11.554 6.204-11.554 13.882v212.010c0 15.507-12.559 28.082-28.066 28.082s-28.082-12.543-28.082-28.066c0-0.016 0-0.016 0-0.016v-211.994c0-38.618 30.378-70.017 67.705-70.017h594.442c37.311 0 67.689 31.396 67.689 70.017v633.792c0 38.618-30.378 70.030-67.689 70.030zM371.452 566.349c12.058-9.701 29.694-7.8 39.395 4.258 0.029 0.029 0.045 0.061 0.077 0.090 9.701 12.071 7.755 29.723-4.332 39.424 0 0-0.016 0.016-0.016 0.016-37.128 29.755-25.635 65.438-19.871 77.952l158.961 146.084c40.824 17.652 62.397-4.287 67.050-9.775 36.489-41.097 14.871-72.554 8.5-80.142l-83.151-71.051c-11.782-10.064-13.198-27.793-3.118-39.578s27.793-13.182 39.591-3.118l84.628 72.297c0.774 0.655 1.519 1.352 2.19 2.113 23.612 25.057 52.606 90.039-5.626 155.631-17.684 22.154-69.224 55.404-137.828 22.623-2.524-1.217-4.849-2.781-6.904-4.669l-165.984-152.5c-2.19-1.962-4.014-4.271-5.474-6.766-17.212-30.256-32.735-101.14 31.913-152.895zM259.517 363.449c17.090 0 36.216 3.863 56.88 13.715 2.524 1.201 4.849 2.797 6.904 4.653l165.984 152.513c2.145 1.962 3.953 4.242 5.382 6.766 17.241 30.256 32.719 101.14-31.884 152.911-12.392 9.306-29.999 6.795-39.302-5.594-8.911-11.843-7.055-28.583 4.213-38.207 37.128-29.771 25.635-65.454 19.871-77.952l-158.961-146.036c-40.763-17.623-62.397 4.287-67.066 9.762-36.489 41.113-14.855 72.57-8.484 80.171l83.151 71.019c11.782 10.064 13.182 27.793 3.118 39.578s-27.793 13.182-39.578 3.118l-84.628-72.281c-0.774-0.655-1.519-1.352-2.219-2.113-23.612-25.073-52.606-90.055 5.671-155.631 12.36-15.507 41.248-36.383 80.948-36.383z" />
<glyph unicode="&#xe90d;" glyph-name="row" d="M879.248 662.976h-734.497c-14.33 0-26.87 12.541-26.87 26.87v53.745c0 14.33 12.541 26.87 26.87 26.87h734.497c14.33 0 26.87-12.541 26.87-26.87v-53.745c0-14.33-12.541-26.87-26.87-26.87zM879.248 396.048h-734.497c-14.33 0-26.87 12.541-26.87 26.87v53.745c0 12.541 12.541 25.081 26.87 25.081h734.497c14.33 0 26.87-12.541 26.87-26.87v-53.745c0-12.541-12.541-25.081-26.87-25.081zM879.248 125.538h-734.497c-14.33 0-26.87 12.541-26.87 26.87v53.745c0 14.33 12.541 26.87 26.87 26.87h734.497c14.33 0 26.87-12.541 26.87-26.87v-53.745c0-14.33-12.541-26.87-26.87-26.87z" />
<glyph unicode="&#xe90e;" glyph-name="search-form" d="M843.32 809.924h-662.626c-53.538 0-96.92-43.566-96.92-97.304v-549.522c0-53.768 43.398-97.32 96.92-97.32h253.744v71.378h-253.744c-14.266 0-25.864 11.674-25.864 25.926v549.536c0 14.298 11.598 25.926 25.864 25.926h662.626c14.252 0 25.834-11.644 25.834-25.926v-147.298h71.102v147.298c-0.016 53.738-43.428 97.304-96.936 97.304zM883.128 351.28c0 126.128-102.258 228.386-228.402 228.386-42.048 0-81.32-11.552-115.176-31.402-23.946-12.334-44.656-29.975-60.748-51.374-32.752-39.516-52.448-90.278-52.448-145.61 0-126.144 102.244-228.402 228.386-228.402 51.834 0 99.466 17.472 137.802 46.558l94.112-94.496 49.028 49.196-94.772 95.126c26.492 37.308 42.216 82.792 42.216 132.018zM654.742 194.256c-86.704 0-157.008 70.304-157.008 157.024 0 86.704 70.304 157.008 157.008 157.008 86.734 0 157.024-70.304 157.024-157.008 0-86.718-70.29-157.024-157.024-157.024z" />
<glyph unicode="&#xe90f;" glyph-name="tabs" d="M782.672 719.936v-213.264h210.16zM832.48 453.024l-104.48 0.128v267.792h-646.672c-26.080 0-47.456-21.392-47.456-47.456v-414.896c0-26.080 21.376-47.456 47.456-47.456h871.12c26.064 0 47.44 21.376 47.44 47.456v194.432h-167.408z" />
<glyph unicode="&#xe910;" glyph-name="tool-bar" d="M832 864h-704v-832h768v832h-64zM640 768h128v-128h-128v128zM448 768h128v-128h-128v128zM256 768h128v-128h-128v128zM832 96h-640v448h640v-448z" />
<glyph unicode="&#xe911;" glyph-name="btn" d="M328.232 475.168c7.508 6.156 11.22 15.612 11.22 28.52 0 12.236-3.712 21.096-11.22 26.496-7.256 5.652-19.24 8.524-36.028 8.524h-64.548v-72.392h63.871c16.788 0.084 29.024 2.956 36.7 8.86zM857.6 793.6h-691.2c-47.758 0-86.4-38.642-86.4-86.4v-518.4c0-47.758 38.642-86.4 86.4-86.4h691.2c47.758 0 86.4 38.642 86.4 86.4v518.4c0 47.758-38.642 86.4-86.4 86.4zM361.556 340.929c-14.26-9.532-34.34-14.26-60.156-14.26h-110.786v242.664h110.786c23.792 0 42.358-5.652 55.772-16.956 12.908-10.884 19.408-25.648 19.408-44.215 0-13.586-3.376-25.144-10.212-34.676-7.004-9.028-16.452-15.78-28.184-20.080 16.116-3.208 28.184-9.616 36.364-19.408s12.236-22.868 12.236-39.404c-0.084-24.214-8.44-42.1-25.228-53.664zM604.304 537.776h-80.916v-211.104h-36.7v211.104h-81.252v31.644h198.871v-31.644zM833.387 326.672h-36.028l-125.384 182.5h-1.352v-182.585h-37.128v242.748h37.38l124.116-180.476h1.352v180.476h37.044v-242.664zM336.756 426.568c-8.356 6.329-21.516 9.532-39.404 9.532h-69.696v-78.892h68.68c15.185 0 27.42 2.528 36.7 7.508 11.136 6.584 16.62 16.788 16.62 30.628 0 14.26-4.3 24.64-12.908 31.216z" />
<glyph unicode="&#xe912;" glyph-name="single-select" d="M521.725 494.534h323.17v-80.014h-323.17v80.014zM302.4 438.764l-57.708 57.694-55.404-55.388 102.15-113.112 177.752 170.806-46.748 53.098zM860.086 783.124h-696.17c-60.61 0-109.922-49.312-109.922-109.922v-446.572c0-60.624 49.312-109.906 109.922-109.906h696.17c60.61 0 109.922 49.296 109.922 109.906v446.556c0 60.624-49.312 109.936-109.922 109.936zM924.206 226.63c0-35.358-28.762-64.136-64.12-64.136h-696.17c-35.358 0-64.12 28.778-64.12 64.136v446.556c0 35.358 28.762 64.12 64.12 64.12h696.17c35.358 0 64.12-28.762 64.12-64.12v-446.556z" />
<glyph unicode="&#xe913;" glyph-name="multiline-text" d="M127.204 852.48v-808.96h769.572v808.96h-769.572zM832.316 111.3h-640.636v673.404h640.616v-673.404zM366.036 571.864v-270.192h-47.764v-38.468h142.68v38.468h-48.424v270.192h69.604l26.6-38.504v99.556h-240.796v-99.556l26.6 38.504zM564.332 546.008h152.776c15.34 0 27.8 12.508 27.8 27.956v5.212c0 15.444-12.456 27.956-27.8 27.956h-152.776c-15.34 0-27.8-12.508-27.8-27.956v-5.212c0-15.444 12.456-27.956 27.8-27.956zM564.332 414.884h152.776c15.34 0 27.8 12.528 27.8 27.956v5.212c0 15.444-12.456 27.956-27.8 27.956h-152.776c-15.34 0-27.8-12.508-27.8-27.956v-5.212c0-15.444 12.456-27.956 27.8-27.956zM564.332 283.76h152.776c15.34 0 27.8 12.528 27.8 27.956v5.212c0 15.444-12.456 27.94-27.8 27.94h-152.776c-15.34 0-27.8-12.508-27.8-27.94v-5.212c0-15.428 12.456-27.956 27.8-27.956z" />
<glyph unicode="&#xe914;" glyph-name="many-association" d="M851.837 853.662h-662.196c-48.149 0-90.295-42.146-90.295-90.295v-240.795c0-48.165 42.146-90.311 90.295-90.311h662.196c48.149 0 90.311 42.146 90.311 90.311v240.795c0 48.149-42.162 90.295-90.311 90.295zM881.927 522.572c0-18.059-12.031-30.106-30.090-30.106h-662.196c-18.075 0-30.106 12.047-30.106 30.106v240.795c0 18.075 12.031 30.106 30.106 30.106h662.196c18.059 0 30.090-12.031 30.090-30.106v-240.795zM846.561 522.6v115.403l-114.831-115.403zM827.007 207.777c-6.306-16.965-16.042-37.361-21.489-42.807-5.317-5.317-25.191-14.465-41.631-20.215h-499.903c-16.478 3.79-35.17 10.561-39.503 14.212-4.1 4.688-11.288 22.747-15.805 39.361v182.060h-69.941v-190.791l1.021-4.125c3.136-12.676 14.923-55.615 35.113-75.805 21.065-21.053 65.244-31.446 78.28-34.133l3.496-0.727h518.399l5.187 1.65c12.284 3.919 53.997 18.327 74.743 39.058 20.395 20.379 35.852 62.443 40.088 74.85l1.887 5.525v186.463h-69.941v-174.587z" />
<glyph unicode="&#xe915;" glyph-name="many-select" d="M520.366 698.212h278.061v-68.841h-278.061v68.841zM331.661 650.232l-49.656 49.64-47.669-47.653 87.894-97.325 152.942 146.965-40.225 45.683zM520.366 488.034h278.061v-68.841h-278.061v68.841zM331.661 440.054l-49.656 49.64-47.669-47.653 87.894-97.325 152.942 146.965-40.225 45.683zM520.366 277.86h278.061v-68.841h-278.061v68.841zM331.661 229.875l-49.656 49.64-47.669-47.653 87.894-97.325 152.942 146.965-40.225 45.683zM811.502 848.001h-598.997c-52.146 0-94.575-42.429-94.575-94.575v-618.071c0-52.146 42.429-94.57 94.575-94.57h598.997c52.146 0 94.575 42.413 94.575 94.57v618.055c0 52.162-42.429 94.591-94.575 94.591zM866.67 135.351c0-30.423-24.746-55.182-55.168-55.182h-598.997c-30.423 0-55.168 24.759-55.168 55.182v618.055c0 30.423 24.746 55.168 55.168 55.168h598.997c30.423 0 55.168-24.746 55.168-55.168v-618.055z" />
<glyph unicode="&#xe916;" glyph-name="many-drop" d="M861.715 848.715h-699.72c-32.173 0-58.285-28.034-58.285-62.773v-251.097c0-34.68 26.112-62.773 58.285-62.773h699.72c32.173 0 58.285 28.093 58.285 62.773v251.097c0 34.739-26.112 62.773-58.285 62.773zM861.715 534.845h-699.72v251.097h699.72v-251.097zM803.43 723.169h-233.317l116.57-125.487 116.747 125.487zM861.715 409.358h-699.72c-32.173 0-58.285-28.093-58.285-62.773v-251.097c0-34.739 26.112-62.773 58.285-62.773h699.72c32.173 0 58.285 28.034 58.285 62.773v251.097c0 34.621-26.112 62.773-58.285 62.773zM861.715 95.488h-699.72v251.097h699.72v-251.097zM803.43 283.807h-233.317l116.57-125.487 116.747 125.487z" />
<glyph unicode="&#xe917;" glyph-name="check-box" d="M832.976 28.592h-630.504c-58.328 0-105.544 47.216-105.544 105.56v630.488c0 58.328 47.216 105.544 105.544 105.544h630.504c58.328 0 105.544-47.216 105.544-105.544v-630.504c0-61.104-47.216-105.544-105.544-105.544zM874.64 742.424c0 36.11-27.776 63.882-63.882 63.882h-586.064c-36.11 0-63.882-27.776-63.882-63.882v-588.84c0-36.11 27.776-63.882 63.882-63.882h588.84c36.11 0 63.882 27.776 63.882 63.882-2.776 0-2.776 588.84-2.776 588.84zM802.424 584.101l-324.976-327.752c-2.776-2.776-5.552-2.776-8.336-5.552-2.776 0-2.776-2.776-5.552-2.776-5.552-2.761-11.112-2.761-13.888-2.761-5.552 0-11.112 0-13.888 2.761-2.776 0-2.776 2.776-5.552 2.776-2.776 2.776-5.552 2.776-8.336 5.552l-161.096 163.874c-16.664 16.664-13.888 41.664 0 58.328 16.664 16.664 41.664 13.888 58.328 0l130.544-133.336 294.424 294.424c16.648 16.664 41.664 16.664 58.312 0 13.904-13.872 13.904-41.648 0.016-55.536z" />
<glyph unicode="&#xe918;" glyph-name="more-search" d="M517.465 94.865h-331.645c-16.3 0-27.135 10.835-27.135 27.135v652c0 16.3 10.835 27.135 27.135 27.135h651.725c16.3 0 27.135-10.835 27.135-27.135v-331.465c0-16.3 10.835-27.135 27.135-27.135s27.135 10.835 27.135 27.135v331.465c0 43.435-38.065 81.5-81.5 81.5h-651.635c-43.435 0-81.5-38.065-81.5-81.5v-652c0-43.435 38.065-81.5 81.5-81.5h331.645c16.3 0 27.135 10.835 27.135 27.135 0.090 16.3-10.835 27.226-27.135 27.226zM911.579 90.22l-76.035 76.035c-1.095 1.095-2.185 2.005-3.37 2.915 20.305 26.315 30.505 60.555 30.505 94.885 0 43.435-16.3 81.5-48.9 114.1-59.735 65.2-163 65.2-228.2 0-32.6-27.135-48.9-70.665-48.9-114.1s16.3-81.5 48.9-114.1c32.6-32.6 70.665-48.9 114.1-48.9 34.33 0 68.66 10.2 94.885 30.505 0.82-1.185 1.82-2.275 2.915-3.37l76.035-81.5c5.465-5.465 16.3-5.465 21.765-5.465s10.835 5.465 16.3 10.835c10.835 11.020 10.835 27.32 0 38.155zM775.715 188.020c-43.435-43.435-108.635-43.435-152.165 0-21.765 21.765-32.6 48.9-32.6 76.035s10.835 54.365 32.6 76.035c21.765 21.765 48.9 32.6 76.035 32.6s59.735-10.835 76.035-32.6c21.765-21.765 32.6-48.9 32.6-76.035 0.090-27.135-10.745-54.274-32.51-76.035zM785.095 665.365c0 16.3-10.835 27.135-27.135 27.135h-499.926c-16.3 0-27.135-10.835-27.135-27.135s10.835-27.135 27.135-27.135h499.835c16.39-0.090 27.226 10.835 27.226 27.135zM552.795 502.365c0 16.3-10.835 27.135-27.135 27.135h-267.63c-16.3 0-27.135-10.835-27.135-27.135s10.835-27.135 27.135-27.135h267.63c16.3-0.090 27.135 10.835 27.135 27.135zM258.030 366.5c-16.3 0-27.135-10.835-27.135-27.135s10.835-27.135 27.135-27.135h160.27c16.3 0 27.135 10.835 27.135 27.135s-10.835 27.135-27.135 27.135h-160.27z" />
<glyph unicode="&#xe919;" glyph-name="static-text" d="M772.287 881.659h-520.978c-95.909 0-173.66-77.751-173.66-173.66v-520.978c0-95.913 77.751-173.66 173.66-173.66h520.978c95.913 0 173.66 77.747 173.66 173.66v520.978c0 95.909-77.747 173.66-173.66 173.66zM880.066 187.021c0-47.954-59.825-107.779-107.779-107.779h-520.978c-47.953 0-107.775 59.825-107.775 107.779v520.978c0 47.953 59.822 107.775 107.775 107.775h520.978c47.954 0 107.779-59.822 107.779-107.775v-520.978zM756.2 213.196c-3.732 6.013-10.298 9.958-17.785 9.958-0.074 0-0.148 0-0.222-0.001h0.011v0.018h-13.824l-194.24 479.871c-3.425 7.767-11.043 13.099-19.909 13.135h-0.005c-8.577-0.025-16.332-5.171-19.837-13.135l-193.45-479.889h-14.667c-8.636 0-16.389-4.405-18.995-12.252-6.030-15.874 5.171-30.81 19.914-30.81h62.129c10.554-0.227 19.715 7.233 21.619 17.617 0.144 0.927 0.226 1.996 0.226 3.085 0 4.669-1.514 8.984-4.077 12.482l0.041-0.059c-3.165 4.331-7.906 7.346-13.366 8.201l-0.115 0.015 39.694 97.515h174.46l37.986-97.515c-11.184-1.741-18.918-12.329-17.29-23.74 2.010-10.452 11.144-17.885 21.597-17.6h132.152c8.611 0 16.389 4.406 18.99 12.276 1.38 2.766 2.187 6.026 2.187 9.473 0 4.204-1.2 8.126-3.276 11.446l0.053-0.090zM404.058 362.942l70.806 175.764 70.783-175.764h-141.589z" />
<glyph unicode="&#xe91a;" glyph-name="filte-drop" d="M934.096 811.348h-844.199c-16.272 0-29.826-13.56-29.826-29.826v-391.366c0-16.272 13.56-29.826 29.826-29.826h843.294c16.272 0 29.826 13.56 29.826 29.826v391.366c0.904 16.272-12.656 29.826-28.922 29.826zM903.366 419.982h-782.732v330.81h783.636l-0.904-330.81zM873.54 322.365c-16.272 0-29.826-13.56-29.826-29.826v-143.712h-663.428v143.712c0 16.272-13.56 29.826-29.826 29.826s-29.826-13.56-29.826-29.826v-173.538c0-16.272 13.56-29.826 29.826-29.826h723.080c16.272 0 29.826 13.56 29.826 29.826v173.538c0 16.272-13.56 29.826-29.826 29.826zM675.594 488.674c11.752-11.752 30.73-11.752 42.482-0.904l0.904 0.904 115.694 118.406c11.752 11.752 11.752 30.73-0.904 42.482s-30.73 11.752-42.482-0.904l-93.998-95.806-94.902 96.71c-5.435 5.441-12.942 8.812-21.238 8.812s-15.809-3.365-21.237-8.812l-0.001-0.001c-10.848-11.752-11.752-29.826 0-41.578l115.694-119.31z" />
<glyph unicode="&#xe91b;" glyph-name="text-associatio" d="M897.607 695.967h-782.567c-56.9 0-106.708-49.808-106.708-106.708v-284.567c0-56.9 49.808-106.725 106.708-106.725h782.567c56.9 0 106.725 49.825 106.725 106.725v284.567c0 56.9-49.825 106.708-106.725 106.708zM933.165 304.692c0-21.342-14.217-35.558-35.558-35.558h-782.567c-21.358 0-35.575 14.217-35.575 35.558v284.567c0 21.358 14.217 35.575 35.575 35.575h782.567c21.342 0 35.558-14.217 35.558-35.575v-284.567zM891.375 304.725v136.382l-135.704-136.382zM166.419 498.618h62.769v-158.071h70.902v158.071h62.769v55.793h-196.439z" />
<glyph unicode="&#xe91c;" glyph-name="associatio" d="M897.607 197.967h-782.567c-56.9 0-106.708 49.825-106.708 106.725v284.567c0 56.9 49.808 106.708 106.708 106.708h782.567c56.9 0 106.725-49.808 106.725-106.708v-284.567c0-56.9-49.825-106.725-106.725-106.725zM115.040 624.833c-21.358 0-35.575-14.217-35.575-35.575v-284.567c0-21.342 14.217-35.558 35.575-35.558h782.567c21.342 0 35.558 14.217 35.558 35.558v284.567c0 21.358-14.217 35.575-35.558 35.575h-782.567zM891.375 441.107v-136.382h-135.704z" />
<glyph unicode="&#xe91d;" glyph-name="date" d="M952 594.664v-488.888c0-53.776-44-97.776-97.776-97.776h-684.443c-53.776 0-97.776 44-97.776 97.776v586.664c0 53.776 44 97.776 97.776 97.776h97.776v48.888c0 29.336 19.553 48.888 48.888 48.888s48.888-19.553 48.888-48.888v-48.888h293.336v48.888c0 29.336 19.553 48.888 48.888 48.888s48.888-19.553 48.888-48.888v-48.888h97.776c53.776 0 97.776-44 97.776-97.776v-97.776zM903.112 594.664h-782.224v-488.888c0-29.336 19.553-48.888 48.888-48.888h684.443c29.336 0 48.888 19.553 48.888 48.888v488.888zM404.448 154.664h-68.446v254.224c-24.448-24.448-53.776-39.112-88-48.888v58.664c19.553 4.888 39.112 14.664 58.664 29.336s34.224 34.224 44 53.776h53.776v-347.112zM507.112 242.664l68.446 4.888c0-14.664 9.776-29.336 14.664-34.224s19.553-9.776 34.224-9.776c14.664 0 24.448 4.888 34.224 14.664s14.664 29.336 14.664 53.776c0 19.553-4.888 39.112-14.664 48.888s-24.448 14.664-39.112 14.664c-19.553 0-34.224-9.776-53.776-24.448l-53.776 4.888 34.224 180.888h176v-63.551h-127.112l-9.776-58.664c14.664 9.776 29.336 9.776 44 9.776 29.336 0 53.776-9.776 73.336-34.224s29.336-48.888 29.336-83.112c0-29.336-9.776-53.776-24.448-78.224-24.448-29.336-53.776-44-92.888-44-34.224 0-58.664 9.776-78.224 24.448s-24.448 44-29.336 73.336z" />
<glyph unicode="&#xe91e;" glyph-name="time" d="M512.1 63.9c137.2 0 264 73.2 332.6 192s68.6 265.2 0 384.1c-68.6 118.8-195.4 192-332.6 192-212.1 0-384.1-171.9-384.1-384s172-384.1 384.1-384.1zM512.1-0.1c-247.5 0-448.1 200.6-448.1 448.1 0 247.4 200.6 448.1 448.1 448.1s448.1-200.6 448.1-448.1c0-247.5-200.6-448.1-448.1-448.1zM544.1 465.1l177.8-118.6c14.1-10 17.7-29.4 8.1-43.8s-28.9-18.6-43.6-9.4l-192 128c-8.9 5.9-14.3 15.9-14.3 26.6v288.1c0 17.7 14.3 32 32 32s32-14.3 32-32v-270.9z" />
<glyph unicode="&#xe91f;" glyph-name="number-text" d="M903.111 800h-782.221c-43.021 0-78.221-35.2-78.221-78.221v-547.558c0-43.021 35.2-78.221 78.221-78.221h782.221c43.021 0 78.221 35.2 78.221 78.221v547.558c0 43.021-35.2 78.221-78.221 78.221zM922.668 174.221c0-11.732-7.821-19.559-19.559-19.559h-782.221c-11.732 0-19.559 7.821-19.559 19.559v547.558c0 11.732 7.821 19.559 19.559 19.559h782.221c11.732 0 19.559-7.821 19.559-19.559v-547.558zM199.111 522.311h54.759v-207.289h54.759v254.221h-82.132zM515.911 389.332c23.468 23.468 43.021 43.021 50.843 62.579 7.821 15.643 15.643 35.2 15.643 50.843 0 11.732-3.911 23.468-11.732 39.111-7.821 11.732-19.559 23.468-31.289 27.379-11.732 7.821-27.379 11.732-46.932 11.732-27.379 0-50.843-7.821-66.489-23.468-19.559-15.643-27.379-39.111-27.379-66.489h50.843c0 11.732 3.911 23.468 11.732 31.289s15.643 11.732 27.379 11.732c11.732 0 19.559-3.911 27.379-7.821 7.821-7.821 11.732-15.643 11.732-23.468s-3.911-19.559-11.732-31.289c-7.821-11.732-19.559-27.379-43.021-46.932l-86.043-82.132v-23.468h195.559v46.932h-101.689l35.2 23.468zM754.489 455.821c11.732 3.911 23.468 11.732 31.289 23.468 7.821 7.821 11.732 19.559 11.732 31.289 0 19.559-7.821 35.2-23.468 46.932s-35.2 19.559-58.668 19.559c-27.379 0-46.932-7.821-62.579-23.468-11.732-11.732-19.559-27.379-23.468-46.932h50.843c3.911 7.821 7.821 11.732 11.732 15.643 7.821 3.911 11.732 7.821 19.559 7.821s15.643-3.911 19.559-7.821c3.911-3.911 7.821-11.732 7.821-15.643s0-11.732-3.911-15.643c-3.911-3.911-7.821-7.821-15.643-11.732s-15.643-3.911-27.379-3.911v-43.021c19.559 0 35.2-3.911 46.932-11.732s15.643-19.559 15.643-31.289c0-11.732-3.911-19.559-11.732-27.379s-19.559-11.732-31.289-11.732c-11.732 0-23.468 3.911-31.289 7.821-7.821 7.821-11.732 15.643-15.643 31.289h-54.759c0-27.379 11.732-46.932 27.379-62.579s39.111-23.468 66.489-23.468c27.379 0 50.843 7.821 70.4 23.468s27.379 35.2 27.379 58.668c0 15.643-3.911 27.379-15.643 39.111-3.911 15.643-15.643 23.468-31.289 31.289z" />
<glyph unicode="&#xe920;" glyph-name="icon" d="M155.808 540.92h61.946v-185.84h-61.946v185.84zM340.020 387.896c-24.468 0-36.688 18.212-36.688 52.19 0.666 36.006 12.234 53.816 34.644 54.513 19.698-0.696 30.912-15.626 33.635-31.112h58.090c-6.118 46.46-37.37 76.906-93.756 77.588-59.112-4.074-90.364-36.456-93.756-98.278 2.028-62.52 34.984-96.962 98.852-98.99 52.996 2.014 82.884 26.76 89.684 73.22h-59.112c-2.726-15.486-13.242-29.13-31.592-29.13zM546.906 542.22c-61.838-3.41-94.454-35.666-97.83-96.807 2.028-63.882 34.644-96.807 97.83-98.852 63.186 2.726 96.141 35.31 98.866 97.83-4.088 62.504-37.044 95.104-98.866 97.83zM546.906 390.358c-23.106 0.682-35.34 18.692-36.688 54.018 1.348 33.962 13.582 51.292 36.688 51.974 23.772 0 36.348-17.33 37.71-51.974-0.682-35.327-13.256-53.336-37.71-54.018zM811.868 540.92l-32.6-117.202-33.635 117.202h-78.765v-185.84h61.946v57.718l-2.818 29.548-2.4 30.246 34.272-117.512h42.808l33.635 108.406h1.006l-0.062-30.446 1.966-26.358v-51.602h46.46v185.84zM512 930.672c-266.154 0-482.672-216.518-482.672-482.672s216.518-482.672 482.672-482.672 482.672 216.518 482.672 482.672-216.518 482.672-482.672 482.672zM512 11.788c-240.523 0-436.212 195.69-436.212 436.212s195.69 436.212 436.212 436.212 436.212-195.69 436.212-436.212-195.69-436.212-436.212-436.212z" />
<glyph unicode="&#xe921;" glyph-name="image" d="M120.373 727.696v-559.276c0-27.964 27.965-55.934 55.927-55.934h671.134c33.556 0 55.926 22.374 55.926 55.934v559.276c0 27.963-27.964 55.927-55.926 55.927h-671.134c-33.556 0-55.927-22.371-55.927-55.927zM64.446 727.696c0 61.521 50.334 111.855 111.855 111.855h671.134c61.522 0 111.855-50.334 111.855-111.855v-559.276c0-61.523-50.332-111.859-111.855-111.859h-671.134c-61.521 0-111.855 50.335-111.855 111.859v559.276zM92.41 196.382l218.119 262.859c22.369 22.373 50.336 22.373 67.112 0l162.191-206.933 156.598 156.597c22.369 22.373 55.929 22.373 72.705-5.589l162.191-206.934-27.967-95.075-755.022-16.784-55.927 111.859zM567.795 587.876c0-46.333 37.563-83.892 83.892-83.892s83.892 37.559 83.892 83.892c0 46.331-37.564 83.892-83.892 83.892-46.33 0-83.892-37.561-83.892-83.892z" />
<glyph unicode="&#xe922;" glyph-name="text" d="M672 672h-320c-9.6 0-16-3.2-22.4-9.6s-9.6-12.8-9.6-22.4v-64c0-19.2 12.8-32 32-32s32 16 32 32v32h96v-320h-32c-16 0-32-12.8-32-32s12.8-32 32-32h128c16 0 32 12.8 32 32s-12.8 32-32 32h-32v320h96v-32c0-19.2 12.8-32 32-32s32 16 32 32v64c0 9.6-3.2 16-9.6 22.4s-12.8 9.6-22.4 9.6zM896 832h-768c-35.2 0-64-28.8-64-64v-640c0-35.2 28.8-64 64-64h768c35.2 0 64 28.8 64 64v640c0 35.2-28.8 64-64 64zM896 160c0-16-12.8-32-32-32h-704c-19.2 0-32 16-32 32v576c0 16 12.8 32 32 32h704c19.2 0 32-16 32-32v-576z" />
<glyph unicode="&#xe923;" glyph-name="text-box" d="M347.151 497.454v115.395h329.697v-115.395h-49.454c0 28.849-20.605 49.454-49.454 49.454h-16.485v-164.849c0-28.849 20.605-49.454 49.454-49.454v-49.454h-197.818v49.454c28.849 0 49.454 20.605 49.454 49.454v164.849h-16.485c-28.849 0-49.454-20.605-49.454-49.454h-49.454zM141.090 736.485c-45.333 0-82.423 37.090-82.423 82.423s37.090 82.423 82.423 82.423 82.423-37.090 82.423-82.423-37.090-82.423-82.423-82.423zM141.090-5.333c-45.333 0-82.423 37.090-82.423 82.423s37.090 82.423 82.423 82.423 82.423-37.090 82.423-82.423-37.090-82.423-82.423-82.423zM882.91 736.485c-45.333 0-82.423 37.090-82.423 82.423s37.090 82.423 82.423 82.423 82.423-37.090 82.423-82.423-37.090-82.423-82.423-82.423zM882.91-5.333c-45.333 0-82.423 37.090-82.423 82.423s37.090 82.423 82.423 82.423 82.423-37.090 82.423-82.423-37.090-82.423-82.423-82.423zM141.090 35.879c24.728 0 41.213 16.485 41.213 41.213s-16.485 41.213-41.213 41.213-41.213-16.485-41.213-41.213 16.485-41.213 41.213-41.213zM882.91 777.697c24.728 0 41.213 16.485 41.213 41.213s-16.485 41.213-41.213 41.213-41.213-16.485-41.213-41.213 16.485-41.213 41.213-41.213zM882.91 35.879c24.728 0 41.213 16.485 41.213 41.213s-16.485 41.213-41.213 41.213-41.213-16.485-41.213-41.213 16.485-41.213 41.213-41.213zM141.090 777.697c24.728 0 41.213 16.485 41.213 41.213s-16.485 41.213-41.213 41.213-41.213-16.485-41.213-41.213 16.485-41.213 41.213-41.213zM305.939 860.121h164.849v-41.213h-164.849v41.213zM553.213 860.121h164.849v-41.213h-164.849v41.213zM924.121 654.061v-164.849h-41.213v164.849h41.213zM924.121 406.787v-164.849h-41.213v164.849h41.213zM141.090 654.061v-164.849h-41.213v164.849h41.213zM141.090 406.787v-164.849h-41.213v164.849h41.213zM305.939 77.090h164.849v-41.213h-164.849v41.213zM553.213 77.090h164.849v-41.213h-164.849v41.213z" />
<glyph unicode="&#xe924;" glyph-name="drop-down" d="M879.080 887.946h-734.16c-39.866 0-72.866-32.997-72.866-72.866v-733.468c0-40.558 32.997-72.866 72.866-72.866h733.468c40.558 0 72.866 32.997 72.866 72.866v733.468c0.687 39.866-32.308 72.866-72.177 72.866zM896.263 80.92c0-9.625-7.558-17.875-17.875-17.875h-733.468c-9.625 0-17.875 7.558-17.875 17.875v734.16c0 9.625 7.558 17.875 17.875 17.875h733.468c9.625 0 17.875-7.558 17.875-17.875v-734.16zM675.607 571.049h-322.397c-14.433 0-19.25-9.625-9.625-21.308l155.357-217.223c6.875-11.683 21.308-11.683 30.933 0l155.357 217.223c6.875 11.683 2.75 21.308-9.625 21.308z" />
<glyph unicode="&#xe925;" glyph-name="hide" d="M995.093 449.562h-0.195c-37.078 95.581-99.202 177.761-177.859 237.535l43.046 38.937c12.816 11.642 13.794 31.404 2.054 44.122l-4.306 4.695c-11.642 12.816-31.504 13.696-44.317 2.153l-56.057-50.778c-73.276 41.186-157.020 64.57-246.048 64.57-218.85 0-406.002-141.171-483.583-341.139h-0.195c0-0.098 0-0.098 0.098-0.195 0 0-0.098-0.098-0.098-0.195h0.098c35.513-92.354 94.115-172.282 168.174-231.665l-52.34-47.448c-12.816-11.642-13.794-31.404-2.153-44.122l4.306-4.794c11.642-12.718 31.504-13.696 44.317-2.054l63.882 57.917c75.92-45.59 163.673-71.613 257.298-71.613 218.85 0 406.002 142.248 483.583 343.782h0.195s-0.098 0.098-0.098 0.195c0.195 0 0.195 0 0.195 0.098zM99.248 449.37c73.374 161.326 230.101 273.048 412.165 273.048 68.874 0 134.128-16.044 192.632-44.61l-95.778-86.777c-27.687 18.49-60.949 29.35-96.854 29.35-96.071 0-173.945-77.581-173.945-173.359 0-29.838 7.533-57.917 20.936-82.471l-111.528-100.963c-63.004 47.448-114.072 111.333-147.628 185.783zM616.288 446.924c0-57.72-46.96-104.485-104.875-104.485-20.839 0-40.208 6.065-56.449 16.435l149.78 135.693c7.338-14.186 11.542-30.426 11.542-47.645zM406.537 446.924c0 57.72 46.96 104.485 104.875 104.485 15.359 0 29.936-3.326 43.046-9.196l-142.346-128.943c-3.618 10.565-5.577 21.914-5.577 33.654zM511.414 174.267c-73.472 0-142.737 18.295-204.076 50.872l95.484 86.484c29.742-23.773 67.602-37.959 108.69-37.959 96.071 0 173.945 77.581 173.945 173.359 0 35.122-10.469 67.699-28.468 94.994l109.18 98.908c67.406-47.741 122.093-113.876 157.412-191.555-73.472-162.498-230.2-275.103-412.165-275.103z" />
<glyph unicode="&#xe926;" glyph-name="group-search" d="M869.472 453.664c0 62.672-50.992 113.76-113.664 113.76-62.656 0-113.664-50.992-113.664-113.76 0-62.656 51.008-113.76 113.664-113.76 24.368 0 48.24 7.984 67.68 22.416l81.008-81.088 23.856 23.856-81.008 81.088c14.336 19.456 22.128 43.216 22.128 67.488zM755.808 373.776c-44.032 0-79.872 35.84-79.872 79.968 0 44.144 35.84 79.984 79.872 79.984s79.872-35.952 79.872-79.984c0-44.112-35.84-79.968-79.872-79.968zM388.32 688h-256.464c-63.872 0-115.856-51.984-115.856-115.856v-256.464c0-63.888 51.984-115.856 115.856-115.856h256.464c63.888 0 115.856 51.968 115.856 115.856v256.464c0 63.872-51.984 115.856-115.856 115.856zM456.176 315.68c0-37.424-30.448-67.856-67.856-67.856h-256.464c-37.408 0-67.856 30.448-67.856 67.856v256.464c0 37.408 30.448 67.856 67.856 67.856h256.464c37.408 0 67.856-30.448 67.856-67.856v-256.464zM898.768 684.176h-256.448c-63.888 0-115.872-51.984-115.872-115.856v-256.448c0-63.888 51.984-115.856 115.872-115.856h256.448c63.888 0 115.856 51.968 115.856 115.856v256.448c0 63.872-51.968 115.856-115.856 115.856zM966.624 311.856c0-37.424-30.432-67.856-67.856-67.856h-256.448c-37.424 0-67.872 30.432-67.872 67.856v256.464c0 37.408 30.448 67.856 67.872 67.856h256.448c37.424 0 67.856-30.448 67.856-67.856v-256.464z" />
</font>
</defs>
</svg>
